<?xml version="1.0" standalone="no"?>
<!DOCTYPE svg PUBLIC "-//W3C//DTD SVG 20010904//EN"
 "http://www.w3.org/TR/2001/REC-SVG-20010904/DTD/svg10.dtd">
<svg version="1.0" xmlns="http://www.w3.org/2000/svg"
 width="1024.000000pt" height="1024.000000pt" viewBox="0 0 1024.000000 1024.000000"
 preserveAspectRatio="xMidYMid meet">

<g transform="translate(0.000000,1024.000000) scale(0.100000,-0.100000)"
fill="#000000" stroke="none">
<path d="M6009 6483 c0 -5 0 -117 1 -250 l1 -243 -145 0 -146 0 0 -180 0 -180
145 0 145 0 0 -505 c0 -623 4 -650 108 -781 48 -60 125 -108 212 -130 72 -19
384 -26 473 -11 l47 8 0 107 c0 59 -3 144 -6 188 l-7 81 -108 -5 -108 -5 -34
34 c-54 54 -57 87 -57 573 l0 433 165 5 c91 2 167 7 170 10 3 3 2 84 -1 181
l-7 177 -163 0 -164 0 -2 248 -3 247 -257 3 c-142 1 -258 -1 -259 -5z"/>
<path d="M1975 6029 c-136 -12 -240 -62 -336 -159 l-66 -67 -7 96 c-4 53 -10
99 -15 104 -4 4 -117 6 -252 5 l-244 -3 0 -885 0 -885 240 -6 c132 -4 250 -3
263 2 l22 9 0 544 c0 513 1 547 20 608 24 78 69 133 141 173 49 27 62 30 149
30 107 0 156 -18 203 -75 60 -71 61 -81 67 -715 l5 -580 260 0 260 0 5 555 c6
545 6 556 28 616 43 115 136 189 255 201 105 11 216 -37 253 -109 37 -72 38
-88 44 -678 l5 -585 260 0 260 0 3 610 c2 410 -1 631 -8 675 -33 193 -124 349
-251 431 -92 59 -179 81 -341 86 -245 9 -379 -36 -517 -174 -66 -66 -76 -72
-85 -56 -5 10 -34 44 -64 76 -117 122 -318 179 -557 156z"/>
<path d="M4616 6019 c-87 -13 -200 -46 -259 -75 -175 -89 -288 -255 -304 -446
l-6 -68 240 0 240 0 12 52 c22 97 73 145 179 167 118 25 264 5 329 -45 50 -38
67 -78 67 -163 l1 -74 -210 -32 c-352 -54 -474 -84 -622 -157 -199 -98 -289
-230 -300 -441 -10 -172 34 -296 143 -405 67 -67 126 -99 234 -129 93 -26 336
-25 440 1 104 26 206 78 266 138 l51 50 7 -69 c12 -115 -19 -103 276 -103 226
0 259 2 264 16 3 9 4 19 1 23 -21 35 -28 195 -29 706 -1 498 -4 567 -19 620
-24 83 -79 192 -121 241 -79 92 -231 163 -405 189 -105 16 -377 18 -475 4z
m501 -1076 c-16 -238 -86 -339 -264 -379 -94 -21 -205 -15 -259 13 -72 37
-106 122 -85 212 30 135 135 181 551 244 67 11 64 17 57 -90z"/>
<path d="M7660 6015 c-424 -95 -658 -378 -696 -840 -8 -104 10 -273 42 -381
87 -302 303 -507 621 -591 83 -22 119 -26 243 -26 181 0 292 26 450 105 85 42
120 67 181 128 44 43 91 102 112 140 35 64 67 162 67 207 l0 23 -240 0 -240 0
-13 -32 c-48 -114 -171 -178 -339 -178 -111 0 -177 27 -249 99 -67 69 -98 141
-106 250 l-6 74 610 -7 611 -7 6 73 c8 85 -6 267 -28 360 -69 299 -269 505
-571 591 -94 26 -359 33 -455 12z m346 -372 c33 -11 67 -34 105 -72 60 -61 84
-114 96 -210 l6 -54 -219 6 c-120 4 -281 7 -356 7 l-138 0 0 40 c0 83 57 188
131 241 82 58 267 79 375 42z"/>
<path d="M8857 4753 c-4 -3 -7 -127 -7 -275 l0 -268 250 0 250 0 0 275 0 275
-243 0 c-134 0 -247 -3 -250 -7z"/>
</g>
</svg>
